HIERARCHY
ROOT Hips
{
  OFFSET -362.814 93.0393 1738.72
  CHANNELS 6 Xposition Yposition Zposition Zrotation Xrotation Yrotation
  JOINT Spine
  {
    OFFSET 0 8 6.73467e-05
    CHANNELS 6 Xposition Yposition Zposition Zrotation Xrotation Yrotation
    JOINT Spine1
    {
      OFFSET 0.000147153 8.00001 0.000345565
      CHANNELS 6 Xposition Yposition Zposition Zrotation Xrotation Yrotation
      JOINT Spine2
      {
        OFFSET -0.000542038 8 -0.000822548
        CHANNELS 6 Xposition Yposition Zposition Zrotation Xrotation Yrotation
        JOINT Spine3
        {
          OFFSET 0 8 0
          CHANNELS 6 Xposition Yposition Zposition Zrotation Xrotation Yrotation
          JOINT Neck
          {
            OFFSET 3.96854e-05 17 -3.66187e-05
            CHANNELS 6 Xposition Yposition Zposition Zrotation Xrotation Yrotation
            JOINT Head
            {
              OFFSET -5.22843e-05 10.8 9.20251e-05
              CHANNELS 6 Xposition Yposition Zposition Zrotation Xrotation Yrotation
              End Site
              {
                OFFSET 0 20.25 0
              }
            }
          }
          JOINT LeftShoulder
          {
            OFFSET 5.00005 17 -3.51723e-05
            CHANNELS 6 Xposition Yposition Zposition Zrotation Xrotation Yrotation
            JOINT LeftShoulder2
            {
              OFFSET 6.45 0 0
              CHANNELS 6 Xposition Yposition Zposition Zrotation Xrotation Yrotation
              JOINT LeftArm
              {
                OFFSET 6.44994 0 4.75562e-05
                CHANNELS 6 Xposition Yposition Zposition Zrotation Xrotation Yrotation
                JOINT LeftForeArm
                {
                  OFFSET -0.000731322 -32.3971 -1.99618
                  CHANNELS 6 Xposition Yposition Zposition Zrotation Xrotation Yrotation
                  JOINT LeftHand
                  {
                    OFFSET -0.000861557 -25.6501 1.99913
                    CHANNELS 6 Xposition Yposition Zposition Zrotation Xrotation Yrotation
                    JOINT LeftHandThumb1
                    {
                      OFFSET -0.500225 -1.49756 2.65127
                      CHANNELS 6 Xposition Yposition Zposition Zrotation Xrotation Yrotation
                      JOINT LeftHandThumb2
                      {
                        OFFSET -0.00019419 -3.80046 3.7001
                        CHANNELS 6 Xposition Yposition Zposition Zrotation Xrotation Yrotation
                        JOINT LeftHandThumb3
                        {
                          OFFSET 0.00024854 -3.00011 2.69843
                          CHANNELS 6 Xposition Yposition Zposition Zrotation Xrotation Yrotation
                          End Site
                          {
                            OFFSET 0.00176744 -2.29997 1.79504
                          }
                        }
                      }
                    }
                    JOINT LeftHandIndex
                    {
                      OFFSET -0.00560949 -1.90538 1.60749
                      CHANNELS 6 Xposition Yposition Zposition Zrotation Xrotation Yrotation
                      JOINT LeftHandIndex1
                      {
                        OFFSET -0.00499326 -8.30631 1.90715
                        CHANNELS 6 Xposition Yposition Zposition Zrotation Xrotation Yrotation
                        JOINT LeftHandIndex2
                        {
                          OFFSET -0.00713386 -4.5082 0.0180338
                          CHANNELS 6 Xposition Yposition Zposition Zrotation Xrotation Yrotation
                          JOINT LeftHandIndex3
                          {
                            OFFSET 0.000190189 -3.39916 0.00052728
                            CHANNELS 6 Xposition Yposition Zposition Zrotation Xrotation Yrotation
                            End Site
                            {
                              OFFSET -0.00104729 -2.59969 -0.00212249
                            }
                          }
                        }
                      }
                    }
                    JOINT LeftHandMiddle
                    {
                      OFFSET -0.2503 -2.19804 0.400699
                      CHANNELS 6 Xposition Yposition Zposition Zrotation Xrotation Yrotation
                      JOINT LeftHandMiddle1
                      {
                        OFFSET -0.0105747 -8.30985 1.01625
                        CHANNELS 6 Xposition Yposition Zposition Zrotation Xrotation Yrotation
                        JOINT LeftHandMiddle2
                        {
                          OFFSET -0.000439461 -4.64945 5.30226e-05
                          CHANNELS 6 Xposition Yposition Zposition Zrotation Xrotation Yrotation
                          JOINT LeftHandMiddle3
                          {
                            OFFSET 0.00189265 -3.30021 -0.000463732
                            CHANNELS 6 Xposition Yposition Zposition Zrotation Xrotation Yrotation
                            End Site
                            {
                              OFFSET 0.00281557 -2.70222 -0.000248424
                            }
                          }
                        }
                      }
                    }
                    JOINT LeftHandRing
                    {
                      OFFSET -0.501466 -2.1506 -0.797768
                      CHANNELS 6 Xposition Yposition Zposition Zrotation Xrotation Yrotation
                      JOINT LeftHandRing1
                      {
                        OFFSET 0.00126235 -7.74587 -0.198773
                        CHANNELS 6 Xposition Yposition Zposition Zrotation Xrotation Yrotation
                        JOINT LeftHandRing2
                        {
                          OFFSET -5.16088e-05 -3.80003 -0.000128898
                          CHANNELS 6 Xposition Yposition Zposition Zrotation Xrotation Yrotation
                          JOINT LeftHandRing3
                          {
                            OFFSET 6.8028e-05 -3.40007 5.19465e-05
                            CHANNELS 6 Xposition Yposition Zposition Zrotation Xrotation Yrotation
                            End Site
                            {
                              OFFSET 0.00140067 -2.60244 0.000231635
                            }
                          }
                        }
                      }
                    }
                    JOINT LeftHandPinky
                    {
                      OFFSET -0.736907 -1.74135 -1.87058
                      CHANNELS 6 Xposition Yposition Zposition Zrotation Xrotation Yrotation
                      JOINT LeftHandPinky1
                      {
                        OFFSET 0.0137538 -7.14241 -1.02239
                        CHANNELS 6 Xposition Yposition Zposition Zrotation Xrotation Yrotation
                        JOINT LeftHandPinky2
                        {
                          OFFSET 0.000948293 -3.00391 -0.00214432
                          CHANNELS 6 Xposition Yposition Zposition Zrotation Xrotation Yrotation
                          JOINT LeftHandPinky3
                          {
                            OFFSET 0.000561107 -2.35005 -0.000189579
                            CHANNELS 6 Xposition Yposition Zposition Zrotation Xrotation Yrotation
                            End Site
                            {
                              OFFSET -9.38946e-05 -2.09991 0
                            }
                          }
                        }
                      }
                    }
                  }
                }
              }
            }
          }
          JOINT RightShoulder
          {
            OFFSET -4.99997 17 -3.80651e-05
            CHANNELS 6 Xposition Yposition Zposition Zrotation Xrotation Yrotation
            JOINT RightShoulder2
            {
              OFFSET -6.45 0 0
              CHANNELS 6 Xposition Yposition Zposition Zrotation Xrotation Yrotation
              JOINT RightArm
              {
                OFFSET -6.44999 0 1.1093e-05
                CHANNELS 6 Xposition Yposition Zposition Zrotation Xrotation Yrotation
                JOINT RightForeArm
                {
                  OFFSET 0.00127763 -32.4002 -1.99961
                  CHANNELS 6 Xposition Yposition Zposition Zrotation Xrotation Yrotation
                  JOINT RightHand
                  {
                    OFFSET -0.00101286 -25.6506 2.0005
                    CHANNELS 6 Xposition Yposition Zposition Zrotation Xrotation Yrotation
                    JOINT RightHandThumb1
                    {
                      OFFSET 0.499423 -1.49969 2.64981
                      CHANNELS 6 Xposition Yposition Zposition Zrotation Xrotation Yrotation
                      JOINT RightHandThumb2
                      {
                        OFFSET -0.018575 -3.82264 3.71626
                        CHANNELS 6 Xposition Yposition Zposition Zrotation Xrotation Yrotation
                        JOINT RightHandThumb3
                        {
                          OFFSET 0.00153401 -2.9999 2.69767
                          CHANNELS 6 Xposition Yposition Zposition Zrotation Xrotation Yrotation
                          End Site
                          {
                            OFFSET 0.0018516 -2.29852 1.79682
                          }
                        }
                      }
                    }
                    JOINT RightHandIndex
                    {
                      OFFSET 2.97717e-05 -1.89981 1.6001
                      CHANNELS 6 Xposition Yposition Zposition Zrotation Xrotation Yrotation
                      JOINT RightHandIndex1
                      {
                        OFFSET -0.00332259 -8.298 1.90469
                        CHANNELS 6 Xposition Yposition Zposition Zrotation Xrotation Yrotation
                        JOINT RightHandIndex2
                        {
                          OFFSET -1.98966e-05 -4.5 -0.000137693
                          CHANNELS 6 Xposition Yposition Zposition Zrotation Xrotation Yrotation
                          JOINT RightHandIndex3
                          {
                            OFFSET 0.000489419 -3.40003 -0.000554147
                            CHANNELS 6 Xposition Yposition Zposition Zrotation Xrotation Yrotation
                            End Site
                            {
                              OFFSET 0.000287063 -2.60043 0.000380447
                            }
                          }
                        }
                      }
                    }
                    JOINT RightHandMiddle
                    {
                      OFFSET 0.246886 -2.20247 0.400221
                      CHANNELS 6 Xposition Yposition Zposition Zrotation Xrotation Yrotation
                      JOINT RightHandMiddle1
                      {
                        OFFSET 0.00116673 -8.30693 1.00346
                        CHANNELS 6 Xposition Yposition Zposition Zrotation Xrotation Yrotation
                        JOINT RightHandMiddle2
                        {
                          OFFSET -0.00741818 -4.65352 0.00207653
                          CHANNELS 6 Xposition Yposition Zposition Zrotation Xrotation Yrotation
                          JOINT RightHandMiddle3
                          {
                            OFFSET 0.00300295 -3.29833 -0.00291212
                            CHANNELS 6 Xposition Yposition Zposition Zrotation Xrotation Yrotation
                            End Site
                            {
                              OFFSET -8.32816e-05 -2.69991 -7.35403e-05
                            }
                          }
                        }
                      }
                    }
                    JOINT RightHandRing
                    {
                      OFFSET 0.500087 -2.15282 -0.801445
                      CHANNELS 6 Xposition Yposition Zposition Zrotation Xrotation Yrotation
                      JOINT RightHandRing1
                      {
                        OFFSET 0.000445051 -7.74886 -0.199375
                        CHANNELS 6 Xposition Yposition Zposition Zrotation Xrotation Yrotation
                        JOINT RightHandRing2
                        {
                          OFFSET -0.000137609 -3.79991 -8.40199e-05
                          CHANNELS 6 Xposition Yposition Zposition Zrotation Xrotation Yrotation
                          JOINT RightHandRing3
                          {
                            OFFSET -0.00100488 -3.39727 0.000889122
                            CHANNELS 6 Xposition Yposition Zposition Zrotation Xrotation Yrotation
                            End Site
                            {
                              OFFSET -0.00312588 -2.59916 0.00279039
                            }
                          }
                        }
                      }
                    }
                    JOINT RightHandPinky
                    {
                      OFFSET 0.750087 -1.75046 -1.84939
                      CHANNELS 6 Xposition Yposition Zposition Zrotation Xrotation Yrotation
                      JOINT RightHandPinky1
                      {
                        OFFSET 0.000702993 -7.14906 -1.00008
                        CHANNELS 6 Xposition Yposition Zposition Zrotation Xrotation Yrotation
                        JOINT RightHandPinky2
                        {
                          OFFSET 0.000304731 -2.99974 0.000242172
                          CHANNELS 6 Xposition Yposition Zposition Zrotation Xrotation Yrotation
                          JOINT RightHandPinky3
                          {
                            OFFSET -0.00177991 -2.34686 0.00136907
                            CHANNELS 6 Xposition Yposition Zposition Zrotation Xrotation Yrotation
                            End Site
                            {
                              OFFSET -0.00152038 -2.10258 -0.000815352
                            }
                          }
                        }
                      }
                    }
                  }
                }
              }
            }
          }
        }
      }
    }
  }
  JOINT LeftUpLeg
  {
    OFFSET 7.99998 0 4.56984e-05
    CHANNELS 6 Xposition Yposition Zposition Zrotation Xrotation Yrotation
    JOINT LeftLeg
    {
      OFFSET -0.000469671 -45.0002 -0.999253
      CHANNELS 6 Xposition Yposition Zposition Zrotation Xrotation Yrotation
      JOINT LeftFoot
      {
        OFFSET 0.000224799 -41 -2.0001
        CHANNELS 6 Xposition Yposition Zposition Zrotation Xrotation Yrotation
        JOINT LeftToeBase
        {
          OFFSET -0.000752158 -7.49995 12.4995
          CHANNELS 6 Xposition Yposition Zposition Zrotation Xrotation Yrotation
          JOINT LeftFootToe
          {
            OFFSET 0 0 4
            CHANNELS 6 Xposition Yposition Zposition Zrotation Xrotation Yrotation
            End Site
            {
              OFFSET 0 0 0
            }
          }
        }
      }
    }
  }
  JOINT RightUpLeg
  {
    OFFSET -7.99998 0 -4.56984e-05
    CHANNELS 6 Xposition Yposition Zposition Zrotation Xrotation Yrotation
    JOINT RightLeg
    {
      OFFSET -0.00224131 -44.9926 -0.999403
      CHANNELS 6 Xposition Yposition Zposition Zrotation Xrotation Yrotation
      JOINT RightFoot
      {
        OFFSET -0.00106476 -41.0005 -2.00056
        CHANNELS 6 Xposition Yposition Zposition Zrotation Xrotation Yrotation
        JOINT RightToeBase
        {
          OFFSET -0.000154363 -7.50007 12.5001
          CHANNELS 6 Xposition Yposition Zposition Zrotation Xrotation Yrotation
          JOINT RightFootToe
          {
            OFFSET 0 0 4
            CHANNELS 6 Xposition Yposition Zposition Zrotation Xrotation Yrotation
            End Site
            {
              OFFSET 0 0 0
            }
          }
        }
      }
    }
  }
}
MOTION
Frames:	3
Frame Time:	0.0111111
-372.557 92.5698 1741.45 -3.2713 -2.78408 -146.8 0 8 2.27374e-13 -8.08349 8.66287 8.45866 -2.27374e-13 8 -2.27374e-13 -0.0133075 2.9899 3.59892 -2.27374e-13 8 1.13687e-13 0.0162148 1.49759 1.79963 0 8 2.27374e-13 0.0163655 1.49443 1.79799 2.27374e-13 17 -1.13687e-13 -1.30853 -0.693253 15.9504 4.54747e-13 10.8 -5.68434e-14 -2.20545 -4.32705 37.7162 5 17 1.13687e-13 -5.96393 1.36583 -4.21585 6.45 -2.84217e-14 1.13687e-13 -1.39267 -0.132739 -0.486403 6.45 -2.84217e-14 2.27374e-13 41.1051 -25.5649 53.945 0 -32.4 -2 -60.3444 -52.4104 -15.3183 0 -25.65 2 -7.90075 33.7585 36.4378 -0.5 -1.5 2.65 -6.6756 -41.4239 23.8343 -8.52651e-14 -3.8 3.7 6.46741 13.7154 3.73572 8.52651e-14 -3 2.7 -0.024202 50.6572 0.00283596 2.27374e-13 -1.9 1.6 -2.16362e-06 3.93376e-06 -2.51949e-06 2.27374e-13 -8.3 1.9 -34.3169 32.7917 11.756 2.27374e-13 -4.5 -5.68434e-14 -75.6415 0.00217735 -0.00111046 -2.27374e-13 -3.4 -5.68434e-14 -58.9834 -0.000797418 0.00353747 -0.25 -2.2 0.4 -2.16362e-06 3.93376e-06 -2.51949e-06 1.13687e-13 -8.3 1 -69.7402 21.9002 20.2346 1.13687e-13 -4.65 1.13687e-13 -90.0377 -0.071587 0.300108 -2.27374e-13 -3.3 3.41061e-13 -90.0002 -9.79949e-07 -6.54883e-05 -0.5 -2.15 -0.8 -2.16362e-06 3.93376e-06 -2.51949e-06 -2.27374e-13 -7.75 -0.2 -76.839 15.2225 19.2484 0 -3.8 0 -71.762 0.0168301 0.0302373 2.27374e-13 -3.4 -2.84217e-13 -89.3832 0.0561567 0.111558 -0.75 -1.75 -1.85 -2.16362e-06 3.93376e-06 -2.51949e-06 -3.41061e-13 -7.15 -1 -87.1766 4.46523 17.4165 0 -3 0 -48.4346 0.0014234 -0.00754582 0 -2.35 0 -33.3757 0.0236328 -0.00334386 -5 17 0 4.6378 4.65894 4.03914 -6.45 -5.68434e-14 -1.13687e-13 -1.12632 0.126547 -1.15577 -6.45 -2.84217e-14 -1.13687e-13 -72.8248 20.7599 7.65818 0 -32.4 -2 33.765 -48.071 77.0623 -1.13687e-13 -25.65 2 -12.3293 -3.6391 -13.6652 0.5 -1.5 2.65 22.0951 20.2361 -171.85 0 -3.8 3.7 -4.80659 15.2351 -2.93115 0 -3 2.7 -0.0518498 49.7079 0.0168076 0 -1.9 1.6 -1.36983e-06 5.38403e-06 -5.21239e-06 0 -8.3 1.9 22.8845 -0.850785 -0.00850904 -2.27374e-13 -4.5 0 10.156 2.15977 0.0552168 6.82121e-13 -3.4 0 9.26074 0.0509412 -0.0527872 0.25 -2.2 0.4 -1.36983e-06 5.38403e-06 -5.21239e-06 -1.13687e-13 -8.3 1 36.0009 4.1659 -2.45635 0 -4.65 1.13687e-13 36.6838 60.1898 27.2018 0 -3.3 -2.27374e-13 69.199 -0.091424 0.00349745 0.5 -2.15 -0.8 -1.36983e-06 5.38403e-06 -5.21239e-06 0 -7.75 -0.2 48.1256 2.39013 -3.5919 4.54747e-13 -3.8 0 23.721 32.1004 9.6537 2.27374e-13 -3.4 0 39.1418 0.0759165 0.00643157 0.75 -1.75 -1.85 -1.36983e-06 5.38403e-06 -5.21239e-06 0 -7.15 -1 52.3769 6.6654 -6.65335 2.27374e-13 -3 0 32.8924 28.3223 4.8752 2.27374e-13 -2.35 2.27374e-13 35.8916 -0.00597929 0.00321847 8 -2.84217e-14 0 22.7866 -15.554 13.7213 0 -45 -1 -36.694 29.2534 13.5252 0 -41 -2 11.8363 -11.7895 -5.43834 0 -7.5 12.5 0.00336568 0.0438649 0.000669514 0 0 4 -0.792022 -2.23189 40.5503 -8 -2.84217e-14 -2.27374e-13 8.92121 -1.36587 -20.6432 0 -45 -1 -45.9868 -0.474497 8.20562 -2.27374e-13 -41 -2 30.5247 -4.09364 -0.649326 0 -7.5 12.5 -1.00523e-05 -1.39112e-05 2.38301e-05 0 0 4 -4.82195 -0.951203 75.0724 
-372.751 92.4873 1741.41 -3.54641 -2.9895 -146.854 0 8 0 -8.56503 8.64995 8.5727 0 8 -2.27374e-13 -0.0237726 3.00137 3.64339 2.27374e-13 8 1.13687e-13 0.0120212 1.49757 1.8218 -2.27374e-13 8 2.27374e-13 0.0109825 1.50111 1.81876 0 17 -1.13687e-13 -1.31637 -0.733687 15.944 4.54747e-13 10.8 -5.68434e-14 -2.22056 -4.29826 37.7031 5 17 1.13687e-13 -5.95142 1.30877 -4.21575 6.45 2.84217e-14 -2.27374e-13 -1.40024 -0.129001 -0.490995 6.45 -2.84217e-14 -2.27374e-13 40.9304 -25.5234 53.7657 0 -32.4 -2 -60.5498 -52.4698 -15.5703 0 -25.65 2 -7.85497 33.7738 36.4171 -0.5 -1.5 2.65 -6.83276 -41.4548 23.6394 -1.13687e-13 -3.8 3.7 6.47117 13.7232 3.73585 8.52651e-14 -3 2.7 -0.0242058 50.7066 0.00283894 4.54747e-13 -1.9 1.6 -2.16362e-06 3.93376e-06 -2.51949e-06 -1.13687e-13 -8.3 1.9 -34.4494 32.7728 11.7928 2.55795e-13 -4.5 0 -75.5364 0.00217735 -0.00111046 0 -3.4 0 -58.8344 -0.000797418 0.00353747 -0.25 -2.2 0.4 -2.16362e-06 3.93376e-06 -2.51949e-06 3.41061e-13 -8.3 1 -69.7916 21.8641 20.2293 0 -4.65 5.68434e-14 -90.0377 -0.071587 0.300108 0 -3.3 2.84217e-13 -90.0002 -9.79948e-07 -6.54883e-05 -0.5 -2.15 -0.8 -2.16362e-06 3.93376e-06 -2.51949e-06 -1.13687e-13 -7.75 -0.2 -76.8907 15.1817 19.2376 0 -3.8 0 -71.6949 0.0168301 0.0302373 2.27374e-13 -3.4 -2.84217e-13 -89.3703 0.0561567 0.11001 -0.75 -1.75 -1.85 -2.16362e-06 3.93376e-06 -2.51949e-06 -3.41061e-13 -7.15 -1 -87.2 4.44106 17.4124 -2.27374e-13 -3 0 -48.3459 0.0014234 -0.00754582 2.27374e-13 -2.35 1.13687e-13 -33.3165 0.0236328 -0.00334386 -5 17 1.13687e-13 4.6351 4.63221 4.09555 -6.45 -5.68434e-14 -1.13687e-13 -1.11456 0.125868 -1.15309 -6.45 -5.68434e-14 -2.27374e-13 -72.7944 20.9413 7.58061 -1.13687e-13 -32.4 -2 33.6348 -48.2117 76.9212 0 -25.65 2 -12.3221 -3.58784 -13.5788 0.5 -1.5 2.65 22.3107 20.1273 -171.948 0 -3.8 3.7 -4.87254 15.4325 -2.94356 0 -3 2.7 -0.0518498 49.7079 0.0168076 2.27374e-13 -1.9 1.6 -1.36983e-06 5.38403e-06 -5.21239e-06 0 -8.3 1.9 22.8686 -0.877054 -0.00296636 2.27374e-13 -4.5 2.27374e-13 10.3376 2.20028 0.0552183 4.54747e-13 -3.4 0 9.40617 0.0525008 -0.0527872 0.25 -2.2 0.4 -1.36983e-06 5.38403e-06 -5.21239e-06 -1.13687e-13 -8.3 1 35.9596 4.13542 -2.44315 0 -4.65 0 36.4135 60.3466 27.5242 -1.13687e-13 -3.3 -2.27374e-13 69.3925 -0.091424 0.00349745 0.5 -2.15 -0.8 -1.36983e-06 5.38403e-06 -5.21239e-06 2.27374e-13 -7.75 -0.2 48.0706 2.38716 -3.58696 2.27374e-13 -3.8 0 23.7228 32.1923 9.72386 0 -3.4 0 39.245 0.0780725 0.00643157 0.75 -1.75 -1.85 -1.36983e-06 5.38403e-06 -5.21239e-06 -1.13687e-13 -7.15 -1 52.3963 6.75791 -6.70391 -2.27374e-13 -3 -1.13687e-13 32.8872 28.312 4.87215 0 -2.35 0 35.8825 -0.00597929 0.00321847 8 0 0 22.4292 -15.5125 13.7279 0 -45 -1 -36.8816 29.3522 13.6277 0 -41 -2 11.9817 -12.0012 -5.80998 0 -7.5 12.5 0.00336568 0.0438649 0.000669514 0 0 4 -0.841394 -2.29716 40.4691 -8 -1.42109e-14 -2.27374e-13 8.51287 -1.27392 -20.7089 1.13687e-13 -45 -1 -46.0053 -0.581528 8.12186 0 -41 -2 30.5019 -4.09858 -0.838606 1.13687e-13 -7.5 12.5 -1.00523e-05 -1.39112e-05 2.38301e-05 0 0 4 -4.60474 -0.899684 75.0736 
-372.944 92.4048 1741.37 -3.8219 -3.19518 -146.908 -2.27374e-13 8 2.27374e-13 -9.04651 8.637 8.68674 -2.27374e-13 8 0 -0.0342557 3.01284 3.68787 -2.27374e-13 8 4.54747e-13 0.00782769 1.49755 1.84398 2.27374e-13 8 1.13687e-13 0.00671929 1.50692 1.84048 0 17 0 -1.32422 -0.774125 15.9376 2.27374e-13 10.8 -5.68434e-14 -2.23565 -4.26946 37.69 5 17 0 -5.93891 1.25171 -4.21565 6.45 0 1.13687e-13 -1.40665 -0.123316 -0.507194 6.45 -5.68434e-14 -2.27374e-13 40.756 -25.4812 53.5865 0 -32.4 -2 -60.7562 -52.5286 -15.8229 0 -25.65 2 -7.80918 33.789 36.3964 -0.5 -1.5 2.65 -6.99009 -41.4854 23.4443 -1.42109e-13 -3.8 3.7 6.47493 13.731 3.73597 1.13687e-13 -3 2.7 -0.0242097 50.7559 0.00284194 2.27374e-13 -1.9 1.6 -2.16362e-06 3.93376e-06 -2.51949e-06 1.13687e-13 -8.3 1.9 -34.5818 32.754 11.8297 2.27374e-13 -4.5 0 -75.4314 0.00217735 -0.00111046 0 -3.4 0 -58.6854 -0.000797418 0.00353747 -0.25 -2.2 0.4 -2.16362e-06 3.93376e-06 -2.51949e-06 2.27374e-13 -8.3 1 -69.843 21.828 20.2239 0 -4.65 1.13687e-13 -90.0377 -0.071587 0.300108 0 -3.3 1.7053e-13 -90.0002 -9.79949e-07 -6.54883e-05 -0.5 -2.15 -0.8 -2.16362e-06 3.93376e-06 -2.51949e-06 -1.13687e-13 -7.75 -0.2 -76.9425 15.1408 19.2268 0 -3.8 5.68434e-14 -71.6277 0.0168301 0.0302373 0 -3.4 -1.13687e-13 -89.3573 0.0561567 0.108463 -0.75 -1.75 -1.85 -2.16362e-06 3.93376e-06 -2.51949e-06 -3.41061e-13 -7.15 -1 -87.2234 4.41689 17.4082 -2.27374e-13 -3 0 -48.2572 0.0014234 -0.00754582 -2.27374e-13 -2.35 0 -33.2573 0.0236328 -0.00334386 -5 17 -1.13687e-13 4.63246 4.60548 4.15195 -6.45 -5.68434e-14 -1.13687e-13 -1.10207 0.125185 -1.14793 -6.45 2.84217e-14 -1.13687e-13 -72.7635 21.1227 7.50294 1.13687e-13 -32.4 -2 33.5036 -48.3521 76.779 0 -25.65 2 -12.315 -3.53652 -13.4924 0.5 -1.5 2.65 22.5259 20.0184 -172.045 -2.27374e-13 -3.8 3.7 -4.93839 15.6299 -2.95604 -2.27374e-13 -3 2.7 -0.0518498 49.7079 0.0168076 1.13687e-13 -1.9 1.6 -1.36983e-06 5.38403e-06 -5.21239e-06 2.27374e-13 -8.3 1.9 22.8528 -0.903323 0.0025764 0 -4.5 0 10.5193 2.24078 0.0552198 4.54747e-13 -3.4 0 9.55161 0.0540604 -0.0527872 0.25 -2.2 0.4 -1.36983e-06 5.38403e-06 -5.21239e-06 0 -8.3 1 35.9184 4.10495 -2.42996 0 -4.65 0 36.1397 60.5024 27.85 0 -3.3 0 69.5859 -0.091424 0.00349745 0.5 -2.15 -0.8 -1.36983e-06 5.38403e-06 -5.21239e-06 1.13687e-13 -7.75 -0.2 48.0156 2.38419 -3.58201 4.54747e-13 -3.8 0 23.7243 32.2842 9.79419 0 -3.4 0 39.3482 0.0802285 0.00643157 0.75 -1.75 -1.85 -1.36983e-06 5.38403e-06 -5.21239e-06 1.13687e-13 -7.15 -1 52.4159 6.8504 -6.7545 0 -3 0 32.882 28.3017 4.86909 0 -2.35 2.27374e-13 35.8734 -0.00597929 0.00321847 8 -1.42109e-14 2.27374e-13 22.0717 -15.471 13.7345 -2.27374e-13 -45 -1 -37.0696 29.4507 13.7304 0 -41 -2 12.1242 -12.2121 -6.18229 0 -7.5 12.5 0.00336568 0.0438649 0.000669514 -2.27374e-13 0 4 -0.889687 -2.35615 40.3829 -8 -1.42109e-14 2.27374e-13 8.10474 -1.18205 -20.7746 0 -45 -1 -46.0241 -0.688602 8.03812 0 -41 -2 30.479 -4.10347 -1.02789 0 -7.5 12.5 -1.00523e-05 -1.39112e-05 2.38301e-05 0 0 4 -4.44127 -0.893782 75.1396 
